<?xml version="1.0" encoding="UTF-8" standalone="no"?><!DOCTYPE svg PUBLIC "-//W3C//DTD SVG 1.1//EN" "http://www.w3.org/Graphics/SVG/1.1/DTD/svg11.dtd"><!-- Generated by graphviz version 2.40.1 (20161225.0304)
 --><!-- Title: G Pages: 1 --><svg xmlns="http://www.w3.org/2000/svg" xmlns:xlink="http://www.w3.org/1999/xlink" width="501pt" height="493pt" viewBox="0.00 0.00 500.90 492.80">
<g id="graph0" class="graph" transform="scale(1 1) rotate(0) translate(4 488.8)">
<title>G</title>
<polygon fill="#ffffff" stroke="transparent" points="-4,4 -4,-488.8 496.8991,-488.8 496.8991,4 -4,4"/>
<!-- WebApp -->
<g id="node1" class="node">
<title>WebApp</title>
<polygon fill="#add8e6" stroke="#add8e6" points="367.246,-484.8 211.8838,-484.8 211.8838,-448.8 367.246,-448.8 367.246,-484.8"/>
<text text-anchor="middle" x="289.5649" y="-462.6" font-family="Times,serif" font-size="14.00" fill="#000000">Web Application (Flask)</text>
</g>
<!-- UserAuth -->
<g id="node2" class="node">
<title>UserAuth</title>
<polygon fill="#add8e6" stroke="#add8e6" points="129.1948,-335.0019 -.065,-335.0019 -.065,-293.7981 129.1948,-293.7981 129.1948,-335.0019"/>
<text text-anchor="middle" x="64.5649" y="-318.6" font-family="Times,serif" font-size="14.00" fill="#000000">User Authentication</text>
<text text-anchor="middle" x="64.5649" y="-301.8" font-family="Times,serif" font-size="14.00" fill="#000000">(Flask-Login)</text>
</g>
<!-- WebApp&#45;&gt;UserAuth -->
<g id="edge1" class="edge">
<title>WebApp-&gt;UserAuth</title>
<path fill="none" stroke="#000000" d="M211.6798,-462.6668C137.6377,-456.9148 33.916,-443.4868 8.5649,-412.8 -9.3529,-391.1111 10.2685,-362.9168 31.0546,-342.2706"/>
<polygon fill="#000000" stroke="#000000" points="33.5503,-344.7274 38.3959,-335.3056 28.7323,-339.6492 33.5503,-344.7274"/>
</g>
<!-- Database -->
<g id="node3" class="node">
<title>Database</title>
<polygon fill="#add8e6" stroke="#add8e6" points="209.1449,-257.4019 105.9849,-257.4019 105.9849,-216.1981 209.1449,-216.1981 209.1449,-257.4019"/>
<text text-anchor="middle" x="157.5649" y="-241" font-family="Times,serif" font-size="14.00" fill="#000000">Database</text>
<text text-anchor="middle" x="157.5649" y="-224.2" font-family="Times,serif" font-size="14.00" fill="#000000">(SQLAlchemy)</text>
</g>
<!-- WebApp&#45;&gt;Database -->
<g id="edge2" class="edge">
<title>WebApp-&gt;Database</title>
<path fill="none" stroke="#000000" d="M223.7972,-448.6748C205.7789,-440.563 188.0641,-429.035 176.5649,-412.8 146.1697,-369.8868 147.9182,-305.711 152.4202,-267.868"/>
<polygon fill="#000000" stroke="#000000" points="155.9533,-267.8516 153.8056,-257.4768 149.0147,-266.9265 155.9533,-267.8516"/>
</g>
<!-- NFC -->
<g id="node4" class="node">
<title>NFC</title>
<polygon fill="#add8e6" stroke="#add8e6" points="129.3058,-410 17.824,-410 17.824,-374 129.3058,-374 129.3058,-410"/>
<text text-anchor="middle" x="73.5649" y="-387.8" font-family="Times,serif" font-size="14.00" fill="#000000">NFC for User ID</text>
</g>
<!-- WebApp&#45;&gt;NFC -->
<g id="edge3" class="edge">
<title>WebApp-&gt;NFC</title>
<path fill="none" stroke="#000000" d="M237.5526,-448.7883C206.8946,-438.1716 167.9167,-424.6737 135.6546,-413.5014"/>
<polygon fill="#000000" stroke="#000000" points="136.4693,-410.0797 125.8745,-410.1146 134.1787,-416.6943 136.4693,-410.0797"/>
</g>
<!-- BarcodeScan -->
<g id="node5" class="node">
<title>BarcodeScan</title>
<polygon fill="#add8e6" stroke="#add8e6" points="306.0229,-412.6019 185.1069,-412.6019 185.1069,-371.3981 306.0229,-371.3981 306.0229,-412.6019"/>
<text text-anchor="middle" x="245.5649" y="-396.2" font-family="Times,serif" font-size="14.00" fill="#000000">Barcode Scanning</text>
<text text-anchor="middle" x="245.5649" y="-379.4" font-family="Times,serif" font-size="14.00" fill="#000000">(OpenCV, Pyzbar)</text>
</g>
<!-- WebApp&#45;&gt;BarcodeScan -->
<g id="edge4" class="edge">
<title>WebApp-&gt;BarcodeScan</title>
<path fill="none" stroke="#000000" d="M278.9137,-448.693C274.145,-440.5861 268.3965,-430.8137 263.0255,-421.683"/>
<polygon fill="#000000" stroke="#000000" points="265.9175,-419.6963 257.8305,-412.8515 259.884,-423.2454 265.9175,-419.6963"/>
</g>
<!-- Camera -->
<g id="node6" class="node">
<title>Camera</title>
<polygon fill="#add8e6" stroke="#add8e6" points="344.0195,-335.0019 219.1103,-335.0019 219.1103,-293.7981 344.0195,-293.7981 344.0195,-335.0019"/>
<text text-anchor="middle" x="281.5649" y="-318.6" font-family="Times,serif" font-size="14.00" fill="#000000">Camera Integration</text>
<text text-anchor="middle" x="281.5649" y="-301.8" font-family="Times,serif" font-size="14.00" fill="#000000">(Picamera2)</text>
</g>
<!-- WebApp&#45;&gt;Camera -->
<g id="edge5" class="edge">
<title>WebApp-&gt;Camera</title>
<path fill="none" stroke="#000000" d="M300.4529,-448.5133C305.8578,-438.3709 311.8094,-425.3105 314.5649,-412.8 318.5418,-394.7439 319.3745,-389.0524 314.5649,-371.2 312.0158,-361.7383 307.4605,-352.2295 302.5327,-343.7709"/>
<polygon fill="#000000" stroke="#000000" points="305.368,-341.7024 297.1167,-335.0567 299.4227,-345.3976 305.368,-341.7024"/>
</g>
<!-- InventoryMgmt -->
<g id="node7" class="node">
<title>InventoryMgmt</title>
<polygon fill="#add8e6" stroke="#add8e6" points="368.0755,-180 221.0543,-180 221.0543,-144 368.0755,-144 368.0755,-180"/>
<text text-anchor="middle" x="294.5649" y="-157.8" font-family="Times,serif" font-size="14.00" fill="#000000">Inventory Management</text>
</g>
<!-- WebApp&#45;&gt;InventoryMgmt -->
<g id="edge6" class="edge">
<title>WebApp-&gt;InventoryMgmt</title>
<path fill="none" stroke="#000000" d="M305.7464,-448.3714C313.8273,-438.397 323.2097,-425.536 329.5649,-412.8 345.6262,-380.6129 347.4003,-370.7992 352.5649,-335.2 355.2194,-316.9027 356.3749,-311.6921 352.5649,-293.6 344.5457,-255.5206 324.7923,-215.0287 310.5653,-189.1766"/>
<polygon fill="#000000" stroke="#000000" points="313.5544,-187.3512 305.6058,-180.3461 307.4511,-190.7791 313.5544,-187.3512"/>
</g>
<!-- UserInteract -->
<g id="node8" class="node">
<title>UserInteract</title>
<polygon fill="#add8e6" stroke="#add8e6" points="419.629,-108 313.5008,-108 313.5008,-72 419.629,-72 419.629,-108"/>
<text text-anchor="middle" x="366.5649" y="-85.8" font-family="Times,serif" font-size="14.00" fill="#000000">User Interaction</text>
</g>
<!-- WebApp&#45;&gt;UserInteract -->
<g id="edge7" class="edge">
<title>WebApp-&gt;UserInteract</title>
<path fill="none" stroke="#000000" d="M317.6996,-448.6009C353.168,-423.1933 409.5649,-373.5013 409.5649,-314.4 409.5649,-314.4 409.5649,-314.4 409.5649,-236.8 409.5649,-193.8016 392.3646,-146.4717 379.721,-117.4891"/>
<polygon fill="#000000" stroke="#000000" points="382.7661,-115.7265 375.4745,-108.0399 376.3813,-118.5959 382.7661,-115.7265"/>
</g>
<!-- ErrorFeedback -->
<g id="node9" class="node">
<title>ErrorFeedback</title>
<polygon fill="#add8e6" stroke="#add8e6" points="492.7336,-36 320.3962,-36 320.3962,0 492.7336,0 492.7336,-36"/>
<text text-anchor="middle" x="406.5649" y="-13.8" font-family="Times,serif" font-size="14.00" fill="#000000">Error Handling &amp; Feedback</text>
</g>
<!-- WebApp&#45;&gt;ErrorFeedback -->
<g id="edge8" class="edge">
<title>WebApp-&gt;ErrorFeedback</title>
<path fill="none" stroke="#000000" d="M335.0415,-448.7126C353.4596,-439.8341 374.0042,-427.7881 389.5649,-412.8 426.1276,-377.5826 447.5649,-365.1651 447.5649,-314.4 447.5649,-314.4 447.5649,-314.4 447.5649,-162 447.5649,-120.1463 431.3453,-73.9754 419.3093,-45.4754"/>
<polygon fill="#000000" stroke="#000000" points="422.4588,-43.9412 415.2599,-36.1676 416.0399,-46.7337 422.4588,-43.9412"/>
</g>
<!-- UserAuth&#45;&gt;Database -->
<g id="edge9" class="edge">
<title>UserAuth-&gt;Database</title>
<path fill="none" stroke="#000000" d="M89.4872,-293.6046C100.3287,-284.5584 113.181,-273.8343 124.7822,-264.1542"/>
<polygon fill="#000000" stroke="#000000" points="127.138,-266.7469 132.5738,-257.6528 122.6533,-261.3722 127.138,-266.7469"/>
</g>
<!-- Database&#45;&gt;InventoryMgmt -->
<g id="edge13" class="edge">
<title>Database-&gt;InventoryMgmt</title>
<path fill="none" stroke="#000000" d="M195.3634,-216.1626C213.034,-206.5147 234.1414,-194.9903 252.3349,-185.0569"/>
<polygon fill="#000000" stroke="#000000" points="254.45,-187.8899 261.5497,-180.0258 251.0955,-181.746 254.45,-187.8899"/>
</g>
<!-- NFC&#45;&gt;UserAuth -->
<g id="edge10" class="edge">
<title>NFC-&gt;UserAuth</title>
<path fill="none" stroke="#000000" d="M71.432,-373.6099C70.4472,-365.1181 69.2508,-354.8029 68.1344,-345.1766"/>
<polygon fill="#000000" stroke="#000000" points="71.5969,-344.6507 66.9681,-335.1205 64.6435,-345.4572 71.5969,-344.6507"/>
</g>
<!-- BarcodeScan&#45;&gt;Camera -->
<g id="edge11" class="edge">
<title>BarcodeScan-&gt;Camera</title>
<path fill="none" stroke="#000000" d="M255.2122,-371.2046C259.0054,-363.0282 263.4345,-353.4811 267.5671,-344.573"/>
<polygon fill="#000000" stroke="#000000" points="270.8575,-345.7971 271.8909,-335.2528 264.5075,-342.8512 270.8575,-345.7971"/>
</g>
<!-- Camera&#45;&gt;InventoryMgmt -->
<g id="edge12" class="edge">
<title>Camera-&gt;InventoryMgmt</title>
<path fill="none" stroke="#000000" d="M283.3452,-293.529C285.6244,-266.8106 289.5831,-220.4018 292.1372,-190.4602"/>
<polygon fill="#000000" stroke="#000000" points="295.6462,-190.5024 293.0089,-180.2411 288.6715,-189.9074 295.6462,-190.5024"/>
</g>
<!-- InventoryMgmt&#45;&gt;UserInteract -->
<g id="edge14" class="edge">
<title>InventoryMgmt-&gt;UserInteract</title>
<path fill="none" stroke="#000000" d="M312.7335,-143.8314C321.2801,-135.2848 331.6206,-124.9443 340.9451,-115.6198"/>
<polygon fill="#000000" stroke="#000000" points="343.5554,-117.9592 348.1516,-108.4133 338.6057,-113.0095 343.5554,-117.9592"/>
</g>
<!-- UserInteract&#45;&gt;ErrorFeedback -->
<g id="edge15" class="edge">
<title>UserInteract-&gt;ErrorFeedback</title>
<path fill="none" stroke="#000000" d="M376.6586,-71.8314C381.1246,-63.7925 386.4724,-54.1666 391.4028,-45.2918"/>
<polygon fill="#000000" stroke="#000000" points="394.5384,-46.8546 396.3353,-36.4133 388.4193,-43.4551 394.5384,-46.8546"/>
</g>
</g>
</svg>