<?xml version="1.0" encoding="UTF-8" standalone="no"?><!DOCTYPE svg PUBLIC "-//W3C//DTD SVG 1.1//EN" "http://www.w3.org/Graphics/SVG/1.1/DTD/svg11.dtd"><!-- Generated by graphviz version 2.40.1 (20161225.0304)
 --><!-- Title: G Pages: 1 --><svg xmlns="http://www.w3.org/2000/svg" xmlns:xlink="http://www.w3.org/1999/xlink" width="270pt" height="507pt" viewBox="0.00 0.00 269.54 507.20">
<g id="graph0" class="graph" transform="scale(1 1) rotate(0) translate(4 503.2)">
<title>G</title>
<polygon fill="#ffffff" stroke="transparent" points="-4,4 -4,-503.2 265.5364,-503.2 265.5364,4 -4,4"/>
<!-- OpenCV -->
<g id="node1" class="node">
<title>OpenCV</title>
<polygon fill="#add8e6" stroke="#add8e6" points="161.8848,-499.2 96.3552,-499.2 96.3552,-463.2 161.8848,-463.2 161.8848,-499.2"/>
<text text-anchor="middle" x="129.12" y="-477" font-family="Times,serif" font-size="14.00" fill="#000000">OpenCV</text>
</g>
<!-- cv2 -->
<g id="node2" class="node">
<title>cv2</title>
<polygon fill="#d3d3d3" stroke="#d3d3d3" points="104.12,-410.4 50.12,-410.4 50.12,-374.4 104.12,-374.4 104.12,-410.4"/>
<text text-anchor="middle" x="77.12" y="-388.2" font-family="Times,serif" font-size="14.00" fill="#000000">cv2</text>
</g>
<!-- OpenCV&#45;&gt;cv2 -->
<g id="edge4" class="edge">
<title>OpenCV-&gt;cv2</title>
<path fill="none" stroke="#000000" d="M97.2715,-463.0608C91.0841,-458.0687 85.3493,-452.0948 81.5526,-445.2 77.4967,-437.8345 75.7721,-428.9974 75.231,-420.6786"/>
<polygon fill="#000000" stroke="#000000" points="78.7292,-420.5193 75.0922,-410.5684 71.7299,-420.6155 78.7292,-420.5193"/>
<text text-anchor="middle" x="120.4037" y="-432.6" font-family="Times,serif" font-size="14.00" fill="#000000"> accessed via </text>
</g>
<!-- ImageProcessing -->
<g id="node5" class="node">
<title>ImageProcessing</title>
<ellipse fill="none" stroke="#000000" cx="182.12" cy="-338.4" rx="79.3328" ry="18"/>
<text text-anchor="middle" x="182.12" y="-334.2" font-family="Times,serif" font-size="14.00" fill="#000000">Image Processing</text>
</g>
<!-- OpenCV&#45;&gt;ImageProcessing -->
<g id="edge1" class="edge">
<title>OpenCV-&gt;ImageProcessing</title>
<path fill="none" stroke="#000000" d="M146.5323,-462.8822C150.8634,-457.5186 155.1204,-451.4162 158.12,-445.2 170.1858,-420.1952 176.2964,-388.9478 179.3193,-366.7263"/>
<polygon fill="#000000" stroke="#000000" points="182.8166,-366.9629 180.5678,-356.6095 175.8693,-366.1055 182.8166,-366.9629"/>
<text text-anchor="middle" x="192.7252" y="-432.6" font-family="Times,serif" font-size="14.00" fill="#000000"> provides </text>
</g>
<!-- PythonInterface -->
<g id="node7" class="node">
<title>PythonInterface</title>
<ellipse fill="none" stroke="#000000" cx="75.12" cy="-284.4" rx="75.2402" ry="18"/>
<text text-anchor="middle" x="75.12" y="-280.2" font-family="Times,serif" font-size="14.00" fill="#000000">Python Interface</text>
</g>
<!-- cv2&#45;&gt;PythonInterface -->
<g id="edge5" class="edge">
<title>cv2-&gt;PythonInterface</title>
<path fill="none" stroke="#000000" d="M71.6331,-374.2509C70.172,-368.5883 68.7984,-362.284 68.0702,-356.4 66.1049,-340.5212 66.5256,-336.3253 68.0702,-320.4 68.3177,-317.8486 68.6616,-315.2095 69.0655,-312.5735"/>
<polygon fill="#000000" stroke="#000000" points="72.5316,-313.0728 70.8437,-302.6133 65.6406,-311.8426 72.5316,-313.0728"/>
<text text-anchor="middle" x="81.1449" y="-334.2" font-family="Times,serif" font-size="14.00" fill="#000000"> is a </text>
</g>
<!-- Zbar -->
<g id="node3" class="node">
<title>Zbar</title>
<polygon fill="#d3d3d3" stroke="#d3d3d3" points="160.12,-124.8 106.12,-124.8 106.12,-88.8 160.12,-88.8 160.12,-124.8"/>
<text text-anchor="middle" x="133.12" y="-102.6" font-family="Times,serif" font-size="14.00" fill="#000000">Zbar</text>
</g>
<!-- BarcodeDecoding -->
<g id="node6" class="node">
<title>BarcodeDecoding</title>
<ellipse fill="none" stroke="#000000" cx="133.12" cy="-18" rx="83.3307" ry="18"/>
<text text-anchor="middle" x="133.12" y="-13.8" font-family="Times,serif" font-size="14.00" fill="#000000">Barcode Decoding</text>
</g>
<!-- Zbar&#45;&gt;BarcodeDecoding -->
<g id="edge3" class="edge">
<title>Zbar-&gt;BarcodeDecoding</title>
<path fill="none" stroke="#000000" d="M133.12,-88.4006C133.12,-76.2949 133.12,-60.2076 133.12,-46.4674"/>
<polygon fill="#000000" stroke="#000000" points="136.6201,-46.072 133.12,-36.072 129.6201,-46.0721 136.6201,-46.072"/>
<text text-anchor="middle" x="159.3602" y="-58.2" font-family="Times,serif" font-size="14.00" fill="#000000"> used for </text>
</g>
<!-- Pyzbar -->
<g id="node4" class="node">
<title>Pyzbar</title>
<polygon fill="#ffff00" stroke="#ffff00" points="113.4925,-213.6 58.7474,-213.6 58.7474,-177.6 113.4925,-177.6 113.4925,-213.6"/>
<text text-anchor="middle" x="86.12" y="-191.4" font-family="Times,serif" font-size="14.00" fill="#000000">Pyzbar</text>
</g>
<!-- Pyzbar&#45;&gt;Zbar -->
<g id="edge7" class="edge">
<title>Pyzbar-&gt;Zbar</title>
<path fill="none" stroke="#000000" d="M85.6121,-177.5501C86.0233,-166.8878 87.8236,-153.4383 93.4418,-142.8 95.3421,-139.2016 97.7518,-135.7817 100.4411,-132.5844"/>
<polygon fill="#000000" stroke="#000000" points="103.1948,-134.7688 107.5718,-125.1203 98.1333,-129.9334 103.1948,-134.7688"/>
<text text-anchor="middle" x="130.4591" y="-147" font-family="Times,serif" font-size="14.00" fill="#000000"> wrapper for </text>
</g>
<!-- ImageProcessing&#45;&gt;Zbar -->
<g id="edge2" class="edge">
<title>ImageProcessing-&gt;Zbar</title>
<path fill="none" stroke="#000000" d="M184.4144,-320.1974C188.123,-284.4696 192.5758,-203.3739 166.12,-142.8 164.6056,-139.3327 162.6165,-135.9803 160.3641,-132.8082"/>
<polygon fill="#000000" stroke="#000000" points="162.9495,-130.4395 153.9324,-124.877 157.5126,-134.8486 162.9495,-130.4395"/>
<text text-anchor="middle" x="211.2059" y="-235.8" font-family="Times,serif" font-size="14.00" fill="#000000"> input to </text>
</g>
<!-- PythonInterface&#45;&gt;Pyzbar -->
<g id="edge6" class="edge">
<title>PythonInterface-&gt;Pyzbar</title>
<path fill="none" stroke="#000000" d="M77.3992,-266.0006C78.9136,-253.775 80.9311,-237.4887 82.6441,-223.6599"/>
<polygon fill="#000000" stroke="#000000" points="86.1254,-224.0265 83.8813,-213.672 79.1785,-223.1659 86.1254,-224.0265"/>
<text text-anchor="middle" x="107.1996" y="-235.8" font-family="Times,serif" font-size="14.00" fill="#000000"> used by </text>
</g>
</g>
</svg>