<?xml version="1.0" encoding="UTF-8" standalone="no"?><!DOCTYPE svg PUBLIC "-//W3C//DTD SVG 1.1//EN" "http://www.w3.org/Graphics/SVG/1.1/DTD/svg11.dtd"><!-- Generated by graphviz version 2.40.1 (20161225.0304)
 --><!-- Title: G Pages: 1 --><svg xmlns="http://www.w3.org/2000/svg" xmlns:xlink="http://www.w3.org/1999/xlink" width="183pt" height="593pt" viewBox="0.00 0.00 183.35 592.80">
<g id="graph0" class="graph" transform="scale(1 1) rotate(0) translate(4 588.8)">
<title>G</title>
<polygon fill="#ffffff" stroke="transparent" points="-4,4 -4,-588.8 179.3494,-588.8 179.3494,4 -4,4"/>
<!-- Picamera2 -->
<g id="node1" class="node">
<title>Picamera2</title>
<polygon fill="#add8e6" stroke="#add8e6" points="152.8477,-584.6019 22.5017,-584.6019 22.5017,-543.3981 152.8477,-543.3981 152.8477,-584.6019"/>
<text text-anchor="middle" x="87.6747" y="-568.2" font-family="Times,serif" font-size="14.00" fill="#000000">Picamera2</text>
<text text-anchor="middle" x="87.6747" y="-551.4" font-family="Times,serif" font-size="14.00" fill="#000000">- Capture video feed</text>
</g>
<!-- FrameCapture -->
<g id="node2" class="node">
<title>FrameCapture</title>
<polygon fill="#add8e6" stroke="#add8e6" points="175.5244,-507.0019 -.175,-507.0019 -.175,-465.7981 175.5244,-465.7981 175.5244,-507.0019"/>
<text text-anchor="middle" x="87.6747" y="-490.6" font-family="Times,serif" font-size="14.00" fill="#000000">Frame Capture</text>
<text text-anchor="middle" x="87.6747" y="-473.8" font-family="Times,serif" font-size="14.00" fill="#000000">- Capture array from camera</text>
</g>
<!-- Picamera2&#45;&gt;FrameCapture -->
<g id="edge1" class="edge">
<title>Picamera2-&gt;FrameCapture</title>
<path fill="none" stroke="#000000" d="M87.6747,-543.2046C87.6747,-535.2891 87.6747,-526.0891 87.6747,-517.4278"/>
<polygon fill="#000000" stroke="#000000" points="91.1748,-517.2527 87.6747,-507.2528 84.1748,-517.2528 91.1748,-517.2527"/>
</g>
<!-- RotateFlip -->
<g id="node3" class="node">
<title>RotateFlip</title>
<polygon fill="#add8e6" stroke="#add8e6" points="168.461,-429.4019 6.8884,-429.4019 6.8884,-388.1981 168.461,-388.1981 168.461,-429.4019"/>
<text text-anchor="middle" x="87.6747" y="-413" font-family="Times,serif" font-size="14.00" fill="#000000">Rotate &amp; Flip</text>
<text text-anchor="middle" x="87.6747" y="-396.2" font-family="Times,serif" font-size="14.00" fill="#000000">- Adjust frame orientation</text>
</g>
<!-- FrameCapture&#45;&gt;RotateFlip -->
<g id="edge2" class="edge">
<title>FrameCapture-&gt;RotateFlip</title>
<path fill="none" stroke="#000000" d="M87.6747,-465.6046C87.6747,-457.6891 87.6747,-448.4891 87.6747,-439.8278"/>
<polygon fill="#000000" stroke="#000000" points="91.1748,-439.6527 87.6747,-429.6528 84.1748,-439.6528 91.1748,-439.6527"/>
</g>
<!-- OpenCV -->
<g id="node4" class="node">
<title>OpenCV</title>
<polygon fill="#add8e6" stroke="#add8e6" points="156.4808,-351.8019 18.8686,-351.8019 18.8686,-310.5981 156.4808,-310.5981 156.4808,-351.8019"/>
<text text-anchor="middle" x="87.6747" y="-335.4" font-family="Times,serif" font-size="14.00" fill="#000000">OpenCV</text>
<text text-anchor="middle" x="87.6747" y="-318.6" font-family="Times,serif" font-size="14.00" fill="#000000">- Frame manipulation</text>
</g>
<!-- RotateFlip&#45;&gt;OpenCV -->
<g id="edge3" class="edge">
<title>RotateFlip-&gt;OpenCV</title>
<path fill="none" stroke="#000000" d="M87.6747,-388.0046C87.6747,-380.0891 87.6747,-370.8891 87.6747,-362.2278"/>
<polygon fill="#000000" stroke="#000000" points="91.1748,-362.0527 87.6747,-352.0528 84.1748,-362.0528 91.1748,-362.0527"/>
</g>
<!-- Pyzbar -->
<g id="node5" class="node">
<title>Pyzbar</title>
<polygon fill="#add8e6" stroke="#add8e6" points="144.8905,-274.2019 30.4589,-274.2019 30.4589,-232.9981 144.8905,-232.9981 144.8905,-274.2019"/>
<text text-anchor="middle" x="87.6747" y="-257.8" font-family="Times,serif" font-size="14.00" fill="#000000">Pyzbar</text>
<text text-anchor="middle" x="87.6747" y="-241" font-family="Times,serif" font-size="14.00" fill="#000000">- Decode barcode</text>
</g>
<!-- OpenCV&#45;&gt;Pyzbar -->
<g id="edge4" class="edge">
<title>OpenCV-&gt;Pyzbar</title>
<path fill="none" stroke="#000000" d="M87.6747,-310.4046C87.6747,-302.4891 87.6747,-293.2891 87.6747,-284.6278"/>
<polygon fill="#000000" stroke="#000000" points="91.1748,-284.4527 87.6747,-274.4528 84.1748,-284.4528 91.1748,-284.4527"/>
</g>
<!-- UpdateFrame -->
<g id="node6" class="node">
<title>UpdateFrame</title>
<polygon fill="#add8e6" stroke="#add8e6" points="158.6145,-196.6019 16.7349,-196.6019 16.7349,-155.3981 158.6145,-155.3981 158.6145,-196.6019"/>
<text text-anchor="middle" x="87.6747" y="-180.2" font-family="Times,serif" font-size="14.00" fill="#000000">Update Frame</text>
<text text-anchor="middle" x="87.6747" y="-163.4" font-family="Times,serif" font-size="14.00" fill="#000000">- Draw barcode &amp; text</text>
</g>
<!-- Pyzbar&#45;&gt;UpdateFrame -->
<g id="edge5" class="edge">
<title>Pyzbar-&gt;UpdateFrame</title>
<path fill="none" stroke="#000000" d="M87.6747,-232.8046C87.6747,-224.8891 87.6747,-215.6891 87.6747,-207.0278"/>
<polygon fill="#000000" stroke="#000000" points="91.1748,-206.8527 87.6747,-196.8528 84.1748,-206.8528 91.1748,-206.8527"/>
</g>
<!-- EncodeFrame -->
<g id="node7" class="node">
<title>EncodeFrame</title>
<polygon fill="#add8e6" stroke="#add8e6" points="145.8785,-119.0019 29.4709,-119.0019 29.4709,-77.7981 145.8785,-77.7981 145.8785,-119.0019"/>
<text text-anchor="middle" x="87.6747" y="-102.6" font-family="Times,serif" font-size="14.00" fill="#000000">Encode Frame</text>
<text text-anchor="middle" x="87.6747" y="-85.8" font-family="Times,serif" font-size="14.00" fill="#000000">- Convert to bytes</text>
</g>
<!-- UpdateFrame&#45;&gt;EncodeFrame -->
<g id="edge6" class="edge">
<title>UpdateFrame-&gt;EncodeFrame</title>
<path fill="none" stroke="#000000" d="M87.6747,-155.2046C87.6747,-147.2891 87.6747,-138.0891 87.6747,-129.4278"/>
<polygon fill="#000000" stroke="#000000" points="91.1748,-129.2527 87.6747,-119.2528 84.1748,-129.2528 91.1748,-129.2527"/>
</g>
<!-- ResponseGen -->
<g id="node8" class="node">
<title>ResponseGen</title>
<polygon fill="#add8e6" stroke="#add8e6" points="156.3589,-41.4019 18.9905,-41.4019 18.9905,-.1981 156.3589,-.1981 156.3589,-41.4019"/>
<text text-anchor="middle" x="87.6747" y="-25" font-family="Times,serif" font-size="14.00" fill="#000000">Response Generation</text>
<text text-anchor="middle" x="87.6747" y="-8.2" font-family="Times,serif" font-size="14.00" fill="#000000">- Return video stream</text>
</g>
<!-- EncodeFrame&#45;&gt;ResponseGen -->
<g id="edge7" class="edge">
<title>EncodeFrame-&gt;ResponseGen</title>
<path fill="none" stroke="#000000" d="M87.6747,-77.6046C87.6747,-69.6891 87.6747,-60.4891 87.6747,-51.8278"/>
<polygon fill="#000000" stroke="#000000" points="91.1748,-51.6527 87.6747,-41.6528 84.1748,-51.6528 91.1748,-51.6527"/>
</g>
</g>
</svg>