<?xml version="1.0" encoding="UTF-8" standalone="no"?><!DOCTYPE svg PUBLIC "-//W3C//DTD SVG 1.1//EN" "http://www.w3.org/Graphics/SVG/1.1/DTD/svg11.dtd"><!-- Generated by graphviz version 2.40.1 (20161225.0304)
 --><!-- Title: G Pages: 1 --><svg xmlns="http://www.w3.org/2000/svg" xmlns:xlink="http://www.w3.org/1999/xlink" width="179pt" height="488pt" viewBox="0.00 0.00 178.70 488.00">
<g id="graph0" class="graph" transform="scale(1 1) rotate(0) translate(4 484)">
<title>G</title>
<polygon fill="#ffffff" stroke="transparent" points="-4,4 -4,-484 174.7028,-484 174.7028,4 -4,4"/>
<!-- ViewsPy -->
<g id="node1" class="node">
<title>ViewsPy</title>
<ellipse fill="#add8e6" stroke="#add8e6" cx="85.3514" cy="-462" rx="45.7673" ry="18"/>
<text text-anchor="middle" x="85.3514" y="-457.8" font-family="Times,serif" font-size="14.00" fill="#000000">views.py</text>
</g>
<!-- AddNFCCardRoute -->
<g id="node2" class="node">
<title>AddNFCCardRoute</title>
<polygon fill="#d3d3d3" stroke="#d3d3d3" points="170.5545,-391.2 .1483,-391.2 .1483,-355.2 170.5545,-355.2 170.5545,-391.2"/>
<text text-anchor="middle" x="85.3514" y="-369" font-family="Times,serif" font-size="14.00" fill="#000000">/add-nfc-card (POST route)</text>
</g>
<!-- ViewsPy&#45;&gt;AddNFCCardRoute -->
<g id="edge1" class="edge">
<title>ViewsPy-&gt;AddNFCCardRoute</title>
<path fill="none" stroke="#000000" d="M85.3514,-443.6006C85.3514,-431.4949 85.3514,-415.4076 85.3514,-401.6674"/>
<polygon fill="#000000" stroke="#000000" points="88.8515,-401.272 85.3514,-391.272 81.8515,-401.2721 88.8515,-401.272"/>
<text text-anchor="middle" x="123.4468" y="-413.4" font-family="Times,serif" font-size="14.00" fill="#000000"> defines route</text>
</g>
<!-- GetNFCUIDFromReaderFunc -->
<g id="node3" class="node">
<title>GetNFCUIDFromReaderFunc</title>
<polygon fill="#f0e68c" stroke="#f0e68c" points="169.7208,-302.4 .982,-302.4 .982,-266.4 169.7208,-266.4 169.7208,-302.4"/>
<text text-anchor="middle" x="85.3514" y="-280.2" font-family="Times,serif" font-size="14.00" fill="#000000">get_nfc_uid_from_reader()</text>
</g>
<!-- AddNFCCardRoute&#45;&gt;GetNFCUIDFromReaderFunc -->
<g id="edge2" class="edge">
<title>AddNFCCardRoute-&gt;GetNFCUIDFromReaderFunc</title>
<path fill="none" stroke="#000000" d="M85.3514,-354.8006C85.3514,-342.6949 85.3514,-326.6076 85.3514,-312.8674"/>
<polygon fill="#000000" stroke="#000000" points="88.8515,-312.472 85.3514,-302.472 81.8515,-312.4721 88.8515,-312.472"/>
<text text-anchor="middle" x="99.9289" y="-324.6" font-family="Times,serif" font-size="14.00" fill="#000000"> calls</text>
</g>
<!-- PN7150Class -->
<g id="node4" class="node">
<title>PN7150Class</title>
<polygon fill="#ffdab9" stroke="#ffdab9" points="133.072,-213.6 37.6308,-213.6 37.6308,-177.6 133.072,-177.6 133.072,-213.6"/>
<text text-anchor="middle" x="85.3514" y="-191.4" font-family="Times,serif" font-size="14.00" fill="#000000">PN7150 Class</text>
</g>
<!-- GetNFCUIDFromReaderFunc&#45;&gt;PN7150Class -->
<g id="edge3" class="edge">
<title>GetNFCUIDFromReaderFunc-&gt;PN7150Class</title>
<path fill="none" stroke="#000000" d="M85.3514,-266.0006C85.3514,-253.8949 85.3514,-237.8076 85.3514,-224.0674"/>
<polygon fill="#000000" stroke="#000000" points="88.8515,-223.672 85.3514,-213.672 81.8515,-223.6721 88.8515,-223.672"/>
<text text-anchor="middle" x="99.1533" y="-235.8" font-family="Times,serif" font-size="14.00" fill="#000000"> uses</text>
</g>
<!-- ReadOnceMethod -->
<g id="node5" class="node">
<title>ReadOnceMethod</title>
<polygon fill="#ffb6c1" stroke="#ffb6c1" points="149.6878,-124.8 21.015,-124.8 21.015,-88.8 149.6878,-88.8 149.6878,-124.8"/>
<text text-anchor="middle" x="85.3514" y="-102.6" font-family="Times,serif" font-size="14.00" fill="#000000">read_once() method</text>
</g>
<!-- PN7150Class&#45;&gt;ReadOnceMethod -->
<g id="edge4" class="edge">
<title>PN7150Class-&gt;ReadOnceMethod</title>
<path fill="none" stroke="#000000" d="M85.3514,-177.2006C85.3514,-165.0949 85.3514,-149.0076 85.3514,-135.2674"/>
<polygon fill="#000000" stroke="#000000" points="88.8515,-134.872 85.3514,-124.872 81.8515,-134.8721 88.8515,-134.872"/>
<text text-anchor="middle" x="108.8763" y="-147" font-family="Times,serif" font-size="14.00" fill="#000000"> invokes</text>
</g>
<!-- NFCController -->
<g id="node6" class="node">
<title>NFCController</title>
<ellipse fill="none" stroke="#000000" stroke-dasharray="5,2" cx="85.3514" cy="-18" rx="71.8472" ry="18"/>
<text text-anchor="middle" x="85.3514" y="-13.8" font-family="Times,serif" font-size="14.00" fill="#000000">NFC Controller</text>
</g>
<!-- ReadOnceMethod&#45;&gt;NFCController -->
<g id="edge5" class="edge">
<title>ReadOnceMethod-&gt;NFCController</title>
<path fill="none" stroke="#000000" stroke-dasharray="5,2" d="M85.3514,-88.4006C85.3514,-76.2949 85.3514,-60.2076 85.3514,-46.4674"/>
<polygon fill="#000000" stroke="#000000" points="88.8515,-46.072 85.3514,-36.072 81.8515,-46.0721 88.8515,-46.072"/>
<text text-anchor="middle" x="125.0057" y="-58.2" font-family="Times,serif" font-size="14.00" fill="#000000"> interacts with</text>
</g>
</g>
</svg>