<?xml version="1.0" encoding="UTF-8" standalone="no"?><!DOCTYPE svg PUBLIC "-//W3C//DTD SVG 1.1//EN" "http://www.w3.org/Graphics/SVG/1.1/DTD/svg11.dtd"><!-- Generated by graphviz version 2.40.1 (20161225.0304)
 --><!-- Title: G Pages: 1 --><svg xmlns="http://www.w3.org/2000/svg" xmlns:xlink="http://www.w3.org/1999/xlink" width="774pt" height="294pt" viewBox="0.00 0.00 774.11 294.40">
<g id="graph0" class="graph" transform="scale(1 1) rotate(0) translate(4 290.4)">
<title>G</title>
<polygon fill="#ffffff" stroke="transparent" points="-4,4 -4,-290.4 770.1084,-290.4 770.1084,4 -4,4"/>
<!-- Flask -->
<g id="node1" class="node">
<title>Flask</title>
<polygon fill="#add8e6" stroke="#add8e6" points="435.1611,-172.6014 280.0083,-172.6014 280.0083,-113.7986 435.1611,-113.7986 435.1611,-172.6014"/>
<text text-anchor="middle" x="357.5847" y="-155.8" font-family="Times,serif" font-size="14.00" fill="#000000">Flask Web Framework</text>
<text text-anchor="middle" x="357.5847" y="-139" font-family="Times,serif" font-size="14.00" fill="#000000">- Web routes</text>
<text text-anchor="middle" x="357.5847" y="-122.2" font-family="Times,serif" font-size="14.00" fill="#000000">- HTTP request handling</text>
</g>
<!-- FlaskLogin -->
<g id="node2" class="node">
<title>FlaskLogin</title>
<polygon fill="#add8e6" stroke="#add8e6" points="748.2016,-286.6014 579.088,-286.6014 579.088,-227.7986 748.2016,-227.7986 748.2016,-286.6014"/>
<text text-anchor="middle" x="663.6448" y="-269.8" font-family="Times,serif" font-size="14.00" fill="#000000">Flask-Login</text>
<text text-anchor="middle" x="663.6448" y="-253" font-family="Times,serif" font-size="14.00" fill="#000000">- User session management</text>
<text text-anchor="middle" x="663.6448" y="-236.2" font-family="Times,serif" font-size="14.00" fill="#000000">- User authentication</text>
</g>
<!-- Flask&#45;&gt;FlaskLogin -->
<g id="edge1" class="edge">
<title>Flask-&gt;FlaskLogin</title>
<path fill="none" stroke="#000000" d="M418.7321,-172.4898C430.1506,-177.6154 442.0529,-182.7314 453.3726,-187.2 490.8239,-201.9843 532.7935,-216.3787 569.3292,-228.2315"/>
<polygon fill="#000000" stroke="#000000" points="568.3949,-231.6076 578.9865,-231.3466 570.5439,-224.9456 568.3949,-231.6076"/>
<text text-anchor="middle" x="498.2769" y="-222.4" font-family="Times,serif" font-size="14.00" fill="#000000"> uses </text>
</g>
<!-- SQLAlchemy -->
<g id="node3" class="node">
<title>SQLAlchemy</title>
<polygon fill="#add8e6" stroke="#add8e6" points="735.9173,-210.6014 591.3723,-210.6014 591.3723,-151.7986 735.9173,-151.7986 735.9173,-210.6014"/>
<text text-anchor="middle" x="663.6448" y="-193.8" font-family="Times,serif" font-size="14.00" fill="#000000">SQLAlchemy</text>
<text text-anchor="middle" x="663.6448" y="-177" font-family="Times,serif" font-size="14.00" fill="#000000">- Database interactions</text>
<text text-anchor="middle" x="663.6448" y="-160.2" font-family="Times,serif" font-size="14.00" fill="#000000">- ORM functionality</text>
</g>
<!-- Flask&#45;&gt;SQLAlchemy -->
<g id="edge2" class="edge">
<title>Flask-&gt;SQLAlchemy</title>
<path fill="none" stroke="#000000" d="M435.2122,-152.8381C479.8309,-158.3779 535.851,-165.3333 581.2476,-170.9697"/>
<polygon fill="#000000" stroke="#000000" points="581.0008,-174.4658 591.3559,-172.2247 581.8634,-167.5192 581.0008,-174.4658"/>
<text text-anchor="middle" x="498.2769" y="-170.4" font-family="Times,serif" font-size="14.00" fill="#000000"> uses </text>
</g>
<!-- OpenCV_Pyzbar -->
<g id="node5" class="node">
<title>OpenCV_Pyzbar</title>
<polygon fill="#add8e6" stroke="#add8e6" points="725.7108,-134.6014 601.5788,-134.6014 601.5788,-75.7986 725.7108,-75.7986 725.7108,-134.6014"/>
<text text-anchor="middle" x="663.6448" y="-117.8" font-family="Times,serif" font-size="14.00" fill="#000000">OpenCV &amp; Pyzbar</text>
<text text-anchor="middle" x="663.6448" y="-101" font-family="Times,serif" font-size="14.00" fill="#000000">- Barcode scanning</text>
<text text-anchor="middle" x="663.6448" y="-84.2" font-family="Times,serif" font-size="14.00" fill="#000000">- Image processing</text>
</g>
<!-- Flask&#45;&gt;OpenCV_Pyzbar -->
<g id="edge3" class="edge">
<title>Flask-&gt;OpenCV_Pyzbar</title>
<path fill="none" stroke="#000000" d="M435.2122,-133.5619C483.2244,-127.6007 544.4384,-120.0005 591.4117,-114.1684"/>
<polygon fill="#000000" stroke="#000000" points="592.0184,-117.62 601.5109,-112.9145 591.1558,-110.6733 592.0184,-117.62"/>
<text text-anchor="middle" x="498.2769" y="-135.4" font-family="Times,serif" font-size="14.00" fill="#000000"> integrates with </text>
</g>
<!-- Picamera2 -->
<g id="node6" class="node">
<title>Picamera2</title>
<polygon fill="#add8e6" stroke="#add8e6" points="766.072,-58.6014 561.2176,-58.6014 561.2176,.2014 766.072,.2014 766.072,-58.6014"/>
<text text-anchor="middle" x="663.6448" y="-41.8" font-family="Times,serif" font-size="14.00" fill="#000000">Picamera2</text>
<text text-anchor="middle" x="663.6448" y="-25" font-family="Times,serif" font-size="14.00" fill="#000000">- Raspberry Pi camera integration</text>
<text text-anchor="middle" x="663.6448" y="-8.2" font-family="Times,serif" font-size="14.00" fill="#000000">- Video feed processing</text>
</g>
<!-- Flask&#45;&gt;Picamera2 -->
<g id="edge4" class="edge">
<title>Flask-&gt;Picamera2</title>
<path fill="none" stroke="#000000" d="M420.8645,-113.9243C431.6393,-109.228 442.7728,-104.5522 453.3726,-100.4 488.2253,-86.7475 526.8967,-73.2064 561.4733,-61.6571"/>
<polygon fill="#000000" stroke="#000000" points="562.7249,-64.9295 571.1105,-58.454 560.517,-58.2868 562.7249,-64.9295"/>
<text text-anchor="middle" x="498.2769" y="-105.4" font-family="Times,serif" font-size="14.00" fill="#000000"> integrates with </text>
</g>
<!-- NFCTech -->
<g id="node4" class="node">
<title>NFCTech</title>
<polygon fill="#add8e6" stroke="#add8e6" points="154.0054,-172.6014 -.0018,-172.6014 -.0018,-113.7986 154.0054,-113.7986 154.0054,-172.6014"/>
<text text-anchor="middle" x="77.0018" y="-155.8" font-family="Times,serif" font-size="14.00" fill="#000000">NFC Technology</text>
<text text-anchor="middle" x="77.0018" y="-139" font-family="Times,serif" font-size="14.00" fill="#000000">- User identification</text>
<text text-anchor="middle" x="77.0018" y="-122.2" font-family="Times,serif" font-size="14.00" fill="#000000">- NFC reader integration</text>
</g>
<!-- NFCTech&#45;&gt;Flask -->
<g id="edge5" class="edge">
<title>NFCTech-&gt;Flask</title>
<path fill="none" stroke="#000000" d="M154.0434,-143.2C189.7817,-143.2 232.446,-143.2 269.4607,-143.2"/>
<polygon fill="#000000" stroke="#000000" points="269.7404,-146.7001 279.7404,-143.2 269.7404,-139.7001 269.7404,-146.7001"/>
<text text-anchor="middle" x="216.9002" y="-147.4" font-family="Times,serif" font-size="14.00" fill="#000000"> interfaces with </text>
</g>
</g>
</svg>