<?xml version="1.0" encoding="UTF-8" standalone="no"?><!DOCTYPE svg PUBLIC "-//W3C//DTD SVG 1.1//EN" "http://www.w3.org/Graphics/SVG/1.1/DTD/svg11.dtd"><!-- Generated by graphviz version 2.40.1 (20161225.0304)
 --><!-- Title: flask_app Pages: 1 --><svg xmlns="http://www.w3.org/2000/svg" xmlns:xlink="http://www.w3.org/1999/xlink" width="870pt" height="605pt" viewBox="0.00 0.00 870.00 604.83">
<g id="graph0" class="graph" transform="scale(1 1) rotate(0) translate(4 600.8313)">
<title>flask_app</title>
<polygon fill="#ffffff" stroke="transparent" points="-4,4 -4,-600.8313 866,-600.8313 866,4 -4,4"/>
<g id="clust1" class="cluster">
<title>cluster_flask_app</title>
<polygon fill="#d3d3d3" stroke="#d3d3d3" points="8,-8 8,-588.8313 682,-588.8313 682,-8 8,-8"/>
<text text-anchor="middle" x="345" y="-572.2313" font-family="Times,serif" font-size="14.00" fill="#000000">Flask Application (website)</text>
</g>
<g id="clust2" class="cluster">
<title>cluster_database</title>
<polygon fill="#add8e6" stroke="#add8e6" points="690,-276.8 690,-353.6 854,-353.6 854,-276.8 690,-276.8"/>
<text text-anchor="middle" x="772" y="-337" font-family="Times,serif" font-size="14.00" fill="#000000">Database</text>
</g>
<g id="clust3" class="cluster">
<title>cluster_client</title>
<polygon fill="#cd8c95" stroke="#cd8c95" points="690,-86.6 690,-163.4 834,-163.4 834,-86.6 690,-86.6"/>
<text text-anchor="middle" x="762" y="-146.8" font-family="Times,serif" font-size="14.00" fill="#000000">Client Side</text>
</g>
<!-- init -->
<g id="node1" class="node">
<title>init</title>
<ellipse fill="none" stroke="#000000" cx="480" cy="-526.6156" rx="117.9075" ry="29.3315"/>
<text text-anchor="middle" x="480" y="-530.8156" font-family="Times,serif" font-size="14.00" fill="#000000">__init__.py</text>
<text text-anchor="middle" x="480" y="-514.0156" font-family="Times,serif" font-size="14.00" fill="#000000">(Application Initialization)</text>
</g>
<!-- views -->
<g id="node2" class="node">
<title>views</title>
<polygon fill="none" stroke="#000000" points="542.7521,-247.6019 417.2479,-247.6019 417.2479,-206.3981 542.7521,-206.3981 542.7521,-247.6019"/>
<text text-anchor="middle" x="480" y="-231.2" font-family="Times,serif" font-size="14.00" fill="#000000">views.py</text>
<text text-anchor="middle" x="480" y="-214.4" font-family="Times,serif" font-size="14.00" fill="#000000">(Route Definitions)</text>
</g>
<!-- init&#45;&gt;views -->
<g id="edge1" class="edge">
<title>init-&gt;views</title>
<path fill="none" stroke="#000000" d="M429.6975,-499.8858C417.0529,-489.4587 407,-476.0329 407,-459.7 407,-459.7 407,-459.7 407,-302.8 407,-283.0411 420.0282,-266.4488 435.0769,-253.874"/>
<polygon fill="#000000" stroke="#000000" points="437.3182,-256.565 443.0723,-247.6688 433.0264,-251.035 437.3182,-256.565"/>
</g>
<!-- models -->
<g id="node3" class="node">
<title>models</title>
<polygon fill="none" stroke="#000000" points="674.1159,-422.0019 551.8841,-422.0019 551.8841,-380.7981 674.1159,-380.7981 674.1159,-422.0019"/>
<text text-anchor="middle" x="613" y="-405.6" font-family="Times,serif" font-size="14.00" fill="#000000">models.py</text>
<text text-anchor="middle" x="613" y="-388.8" font-family="Times,serif" font-size="14.00" fill="#000000">(Database Models)</text>
</g>
<!-- init&#45;&gt;models -->
<g id="edge2" class="edge">
<title>init-&gt;models</title>
<path fill="none" stroke="#000000" d="M510.5129,-497.8886C532.4659,-477.2205 561.9065,-449.503 583.6004,-429.0788"/>
<polygon fill="#000000" stroke="#000000" points="586.044,-431.5854 590.9258,-422.1822 581.2457,-426.4887 586.044,-431.5854"/>
</g>
<!-- auth -->
<g id="node4" class="node">
<title>auth</title>
<polygon fill="none" stroke="#000000" points="534.0256,-422.0019 425.9744,-422.0019 425.9744,-380.7981 534.0256,-380.7981 534.0256,-422.0019"/>
<text text-anchor="middle" x="480" y="-405.6" font-family="Times,serif" font-size="14.00" fill="#000000">auth.py</text>
<text text-anchor="middle" x="480" y="-388.8" font-family="Times,serif" font-size="14.00" fill="#000000">(Authentication)</text>
</g>
<!-- init&#45;&gt;auth -->
<g id="edge3" class="edge">
<title>init-&gt;auth</title>
<path fill="none" stroke="#000000" d="M480,-496.9413C480,-477.447 480,-451.9976 480,-432.2667"/>
<polygon fill="#000000" stroke="#000000" points="483.5001,-432.2503 480,-422.2504 476.5001,-432.2504 483.5001,-432.2503"/>
</g>
<!-- templates -->
<g id="node7" class="node">
<title>templates</title>
<polygon fill="none" stroke="#000000" points="473.2906,-57.4019 470.2906,-61.4019 449.2906,-61.4019 446.2906,-57.4019 346.7094,-57.4019 346.7094,-16.1981 473.2906,-16.1981 473.2906,-57.4019"/>
<text text-anchor="middle" x="410" y="-41" font-family="Times,serif" font-size="14.00" fill="#000000">Templates</text>
<text text-anchor="middle" x="410" y="-24.2" font-family="Times,serif" font-size="14.00" fill="#000000">(HTML Templates)</text>
</g>
<!-- views&#45;&gt;templates -->
<g id="edge4" class="edge">
<title>views-&gt;templates</title>
<path fill="none" stroke="#000000" d="M472.3755,-206.2832C460.015,-172.6978 435.5438,-106.2061 421.2015,-67.2361"/>
<polygon fill="#000000" stroke="#000000" points="424.3536,-65.667 417.6151,-57.4913 417.7844,-68.0847 424.3536,-65.667"/>
</g>
<!-- browser -->
<g id="node10" class="node">
<title>browser</title>
<ellipse fill="none" stroke="#000000" cx="762" cy="-112.6" rx="64.2863" ry="18"/>
<text text-anchor="middle" x="762" y="-108.4" font-family="Times,serif" font-size="14.00" fill="#000000">Web Browser</text>
</g>
<!-- views&#45;&gt;browser -->
<g id="edge11" class="edge">
<title>views-&gt;browser</title>
<path fill="none" stroke="#000000" d="M492.3396,-206.2567C501.0022,-193.7728 513.8076,-178.8903 529.406,-171.4 560.8163,-156.3169 652.9262,-174.3651 686,-163.4 703.5899,-157.5684 720.9449,-146.488 734.6199,-136.1602"/>
<polygon fill="#000000" stroke="#000000" points="736.9186,-138.8054 742.6281,-129.8806 732.5992,-133.297 736.9186,-138.8054"/>
<text text-anchor="middle" x="577.797" y="-175.6" font-family="Times,serif" font-size="14.00" fill="#000000">HTTP Responses</text>
</g>
<!-- models&#45;&gt;views -->
<g id="edge6" class="edge">
<title>models-&gt;views</title>
<path fill="none" stroke="#000000" d="M597.2209,-380.7092C573.5236,-349.6355 528.6701,-290.82 501.8429,-255.6422"/>
<polygon fill="#000000" stroke="#000000" points="504.6057,-253.4931 495.7586,-247.6639 499.0396,-257.7379 504.6057,-253.4931"/>
</g>
<!-- db -->
<g id="node9" class="node">
<title>db</title>
<polygon fill="none" stroke="#000000" points="846.0597,-320.8 697.9403,-320.8 697.9403,-284.8 846.0597,-284.8 846.0597,-320.8"/>
<text text-anchor="middle" x="772" y="-298.6" font-family="Times,serif" font-size="14.00" fill="#000000">SQLAlchemy Database</text>
</g>
<!-- models&#45;&gt;db -->
<g id="edge12" class="edge">
<title>models-&gt;db</title>
<path fill="none" stroke="#000000" d="M646.3316,-380.7302C671.9393,-364.8502 707.3272,-342.9053 734.027,-326.3481"/>
<polygon fill="#000000" stroke="#000000" points="736.0679,-329.2008 742.7219,-320.9561 732.3788,-323.2518 736.0679,-329.2008"/>
</g>
<!-- auth&#45;&gt;views -->
<g id="edge7" class="edge">
<title>auth-&gt;views</title>
<path fill="none" stroke="#000000" d="M480,-380.7092C480,-350.2911 480,-293.2893 480,-257.8997"/>
<polygon fill="#000000" stroke="#000000" points="483.5001,-257.6639 480,-247.6639 476.5001,-257.6639 483.5001,-257.6639"/>
</g>
<!-- nfc_util -->
<g id="node5" class="node">
<title>nfc_util</title>
<polygon fill="none" stroke="#000000" points="387.83,-422.0019 236.17,-422.0019 236.17,-380.7981 387.83,-380.7981 387.83,-422.0019"/>
<text text-anchor="middle" x="312" y="-405.6" font-family="Times,serif" font-size="14.00" fill="#000000">nfc_util.py</text>
<text text-anchor="middle" x="312" y="-388.8" font-family="Times,serif" font-size="14.00" fill="#000000">(NFC Utility Functions)</text>
</g>
<!-- nfc_util&#45;&gt;views -->
<g id="edge8" class="edge">
<title>nfc_util-&gt;views</title>
<path fill="none" stroke="#000000" d="M321.4731,-380.5758C335.5125,-351.6399 364.2955,-299.0846 402,-265.8 407.3787,-261.0518 413.4424,-256.731 419.7524,-252.8423"/>
<polygon fill="#000000" stroke="#000000" points="421.5599,-255.8402 428.4685,-247.8077 418.0586,-249.7787 421.5599,-255.8402"/>
</g>
<!-- nfc_util_NXP -->
<g id="node6" class="node">
<title>nfc_util_NXP</title>
<polygon fill="none" stroke="#000000" points="218.1469,-422.0019 15.8531,-422.0019 15.8531,-380.7981 218.1469,-380.7981 218.1469,-422.0019"/>
<text text-anchor="middle" x="117" y="-405.6" font-family="Times,serif" font-size="14.00" fill="#000000">nfc_util_NXP.py</text>
<text text-anchor="middle" x="117" y="-388.8" font-family="Times,serif" font-size="14.00" fill="#000000">(NFC Utility Functions for NXP)</text>
</g>
<!-- nfc_util_NXP&#45;&gt;views -->
<g id="edge9" class="edge">
<title>nfc_util_NXP-&gt;views</title>
<path fill="none" stroke="#000000" d="M147.8258,-380.7296C188.4766,-354.1174 262.8467,-307.6375 331,-276.8 345.2944,-270.3322 376.8341,-259.6197 407.2317,-249.7841"/>
<polygon fill="#000000" stroke="#000000" points="408.5908,-253.0235 417.0376,-246.628 406.4461,-246.3601 408.5908,-253.0235"/>
</g>
<!-- static -->
<g id="node8" class="node">
<title>static</title>
<polygon fill="none" stroke="#000000" points="398.8753,-247.6019 395.8753,-251.6019 374.8753,-251.6019 371.8753,-247.6019 281.1247,-247.6019 281.1247,-206.3981 398.8753,-206.3981 398.8753,-247.6019"/>
<text text-anchor="middle" x="340" y="-231.2" font-family="Times,serif" font-size="14.00" fill="#000000">Static</text>
<text text-anchor="middle" x="340" y="-214.4" font-family="Times,serif" font-size="14.00" fill="#000000">(JS, CSS, Images)</text>
</g>
<!-- static&#45;&gt;templates -->
<g id="edge5" class="edge">
<title>static-&gt;templates</title>
<path fill="none" stroke="#000000" d="M347.6245,-206.2832C359.985,-172.6978 384.4562,-106.2061 398.7985,-67.2361"/>
<polygon fill="#000000" stroke="#000000" points="402.2156,-68.0847 402.3849,-57.4913 395.6464,-65.667 402.2156,-68.0847"/>
</g>
<!-- db&#45;&gt;models -->
<g id="edge13" class="edge">
<title>db-&gt;models</title>
<path fill="none" stroke="#000000" d="M748.6862,-321.062C732.4024,-333.448 709.9178,-349.8273 689,-362.6 681.4671,-367.1997 673.3241,-371.7599 665.263,-376.0499"/>
<polygon fill="#000000" stroke="#000000" points="663.4767,-373.0342 656.2335,-380.7663 666.7176,-379.2388 663.4767,-373.0342"/>
</g>
<!-- browser&#45;&gt;views -->
<g id="edge10" class="edge">
<title>browser-&gt;views</title>
<path fill="none" stroke="#000000" d="M739.5259,-129.5314C724.8073,-140.1312 704.8688,-153.5899 686,-163.4 643.9688,-185.2526 593.1461,-201.043 552.4982,-211.4242"/>
<polygon fill="#000000" stroke="#000000" points="551.515,-208.0621 542.6618,-213.8821 553.212,-214.8533 551.515,-208.0621"/>
<text text-anchor="middle" x="708.52" y="-175.6" font-family="Times,serif" font-size="14.00" fill="#000000">HTTP Requests</text>
</g>
</g>
</svg>